# xmcd
#
# Track frame offsets: 
#        150
#        23636
#        36913
#        56979
#        69686
#        93150
#        110122
#        127233
#        141081
#        159375
#
# Disc length: 2451 seconds
#
# Revision: 1
# Processed by: cddbd v1.5.2PL0 Copyright (c) Steve Scherf et al.
# Submitted via: ExactAudioCopy v1.0b2
#
DISCID=9109910a
DTITLE=Grey De Lisle - Homewrecker
DYEAR=2002
DGENRE=Alternative Country
TTITLE0=Borrowed and Blue
TTITLE1=Usted
TTITLE2=Beautiful Mistake
TTITLE3=Homewrecker
TTITLE4=Dead Cat
TTITLE5=Showgirl (I'm Sorry)
TTITLE6=Frozen in Time
TTITLE7=The Hole
TTITLE8='Twas Her Hunger
TTITLE9=Ferris Wheels and Freakshows
EXTD=
EXTT0=
EXTT1=
EXTT2=
EXTT3=
EXTT4=
EXTT5=
EXTT6=
EXTT7=
EXTT8=
EXTT9=
PLAYORDER=
